<?xml version="1.0" standalone="no"?><!DOCTYPE svg PUBLIC "-//W3C//DTD SVG 1.1//EN" "http://www.w3.org/Graphics/SVG/1.1/DTD/svg11.dtd"><svg t="1543994178888" class="icon" style="" viewBox="0 0 1024 1024" version="1.1" xmlns="http://www.w3.org/2000/svg" p-id="1780" xmlns:xlink="http://www.w3.org/1999/xlink" width="128" height="128"><defs><style type="text/css"></style></defs><path d="M512 0C290.6752 0 110.5984 181.1392 110.5984 403.7696c0 86.5408 27.2 169.3184 78.1568 238.7264l240.9472 344.5632c17.7344 23.456 44.7488 36.9344 74.0864 36.9344 29.4976 0 56.576-13.568 74.3168-37.2736l256.6592-343.5648c51.4368-70.0736 78.6368-152.8448 78.6368-239.3856C913.4016 181.1392 733.3248 0 512 0L512 0zM796.4608 610.1184l-273.6384 366.2848c-6.432 8.5824-15.0208 9.8688-19.584 9.8688-4.5376 0-13.1008-1.2864-18.752-8.7104L227.712 610.3616c-45.4144-61.856-69.4336-134.9376-69.4336-211.3152C158.2784 202.592 316.9664 42.752 512 42.752c195.0272 0 353.7216 159.8464 353.7216 356.2944C865.7216 475.424 841.7088 548.5056 796.4608 610.1184L796.4608 610.1184zM778.624 601.6128" p-id="1781"></path><path d="M512 215.4752c-103.3152 0-187.3536 84.4672-187.3536 188.2944 0 103.8528 84.0448 188.32 187.3536 188.32 103.3088 0 187.3536-84.4672 187.3536-188.32C699.3536 299.9488 615.3152 215.4752 512 215.4752L512 215.4752zM512 547.7376c-78.7072 0-142.7264-64.5696-142.7264-143.968 0-79.3664 64.0192-143.936 142.7264-143.936 78.7008 0 142.72 64.576 142.72 143.936C654.72 483.168 590.7008 547.7376 512 547.7376L512 547.7376zM512 519.3984" p-id="1782"></path></svg>
