<?xml version="1.0" standalone="no"?><!DOCTYPE svg PUBLIC "-//W3C//DTD SVG 1.1//EN" "http://www.w3.org/Graphics/SVG/1.1/DTD/svg11.dtd"><svg t="1543994298734" class="icon" style="" viewBox="0 0 1024 1024" version="1.1" xmlns="http://www.w3.org/2000/svg" p-id="2548" xmlns:xlink="http://www.w3.org/1999/xlink" width="128" height="128"><defs><style type="text/css"></style></defs><path d="M778 818.3H249.6c-62 0-106.5-34.4-106.5-96.4V300.5c0-62 44.5-100.6 106.5-100.6H778c62 0 104 36.9 104 98.9v424c0 62-42 95.5-104 95.5M249.6 232c-44.3 0-74.4 24.2-74.4 68.5V722c0 44.3 30.1 64.2 74.4 64.2H778c44.3 0 71.9-19.1 71.9-63.4v-424c0-44.3-27.6-66.8-71.9-66.8H249.6m254.9 292.2c-3.2 0-6.4-0.9-9.1-2.8l-285.1-195c-7.3-5-9.2-15-4.2-22.3 5-7.3 15-9.2 22.3-4.2l276.3 188.9L797 299.7c7.4-4.8 17.4-2.7 22.2 4.7 4.8 7.5 2.7 17.4-4.8 22.2l-301.1 195c-2.7 1.7-5.7 2.6-8.8 2.6z" p-id="2549"></path></svg>
